<?xml version="1.0" encoding="UTF-8" standalone="no"?>
<svg
   version="1.0"
   width="100pt"
   height="200pt"
   viewBox="0 0 100 200"
   preserveAspectRatio="xMidYMid"
   id="svg10"
   sodipodi:docname="creative-v.svg"
   inkscape:version="1.4.3 (0d15f75, 2025-12-25)"
   xml:space="preserve"
   xmlns:inkscape="http://www.inkscape.org/namespaces/inkscape"
   xmlns:sodipodi="http://sodipodi.sourceforge.net/DTD/sodipodi-0.dtd"
   xmlns:xlink="http://www.w3.org/1999/xlink"
   xmlns="http://www.w3.org/2000/svg"
   xmlns:svg="http://www.w3.org/2000/svg"><defs
     id="defs10"><clipPath
       clipPathUnits="userSpaceOnUse"
       id="clipPath3"><path
         id="path4"
         style="fill:#c8b7b7;stroke-width:0.566929;stroke-linecap:round;stroke-linejoin:round;paint-order:markers fill stroke"
         d="M 3188.4109,-2046.7213 H 1676.656 L 849.46943,-4100.4261 H 3188.4109 Z"
         sodipodi:nodetypes="ccccc" /></clipPath><clipPath
       clipPathUnits="userSpaceOnUse"
       id="clipPath7"><path
         style="fill:#c8b7b7;stroke-width:0.566929;stroke-linecap:round;stroke-linejoin:round;paint-order:markers fill stroke"
         d="m 36.120725,-2807.2253 c -16.877629,-0.3242 -7.864747,-0.6807 -27.0151016,1.557 -5.0855295,0.5942 -10.238022,0.7683 -15.2566524,1.7829 -5.434083,1.0985 -10.523102,3.6855 -16.001449,4.5361 -25.334494,3.934 -121.439132,10.1229 -126.815302,10.0196 -18.16146,-0.3487 -35.79256,-6.2921 -53.80443,-8.6443 -17.2042,-2.2468 -34.63626,-2.5806 -51.7958,-5.1462 -19.60988,-2.9321 -68.52445,-11.1032 -95.10558,-19.8165 -23.63934,-7.7489 -34.75484,-12.1731 -54.09766,-29.4078 -12.41782,-11.0644 -22.91824,-24.1118 -34.59792,-35.9528 -16.14918,-16.372 -33.01205,-32.0408 -48.88408,-48.6816 -27.7454,-29.0895 -25.3078,-28.256 -45.90478,-59.6956 -6.27414,-9.5767 -14.345,-18.1931 -18.82232,-28.7304 -2.35163,-5.5344 -0.14993,-12.0626 -1.03804,-18.01 -1.56996,-10.5136 -5.70738,-20.6456 -6.31905,-31.2581 -1.34747,-23.3798 4.23421,-37.5007 10.13401,-59.3113 4.07068,-15.0487 6.77066,-29.6646 14.67021,-43.3098 11.12239,-19.212 12.64594,-19.1354 28.95632,-30.5808 19.33223,-13.5658 38.68696,-27.1018 58.20576,-40.3979 24.86031,-16.9347 33.18062,-23.3565 62.22303,-33.4017 1.98178,-0.6853 78.59071,-22.3948 86.2589,-23.9448 12.11522,-2.4493 24.50605,-3.2497 36.76495,-4.8295 100.86691,-12.9985 9.17246,-2.256 88.04174,-8.6883 13.19914,-1.0765 26.29057,-3.4511 39.51837,-4.0847 78.450954,-3.7577 27.44802,0.4786 79.555688,0.8358 9.926315,0.068 19.843008,-0.6722 29.768542,-0.8123 3.919784,-0.055 7.855736,0.5961 11.758415,0.2259 4.2330578,-0.4017 8.2582355,-2.283 12.50326418,-2.5277 2.19677932,-0.1268 31.87446082,0.3434 38.02873682,1.4222 5.619139,0.9847 11.013646,2.9792 16.520469,4.4688 8.260233,2.2344 16.397118,4.9886 24.780705,6.7032 6.586687,1.3474 13.405468,1.2497 20.01869,2.4602 4.67598,0.8569 9.17804,2.4826 13.76705,3.724 1.83561,0.4965 3.67122,0.993 5.50682,1.4896 2.75342,0.7448 5.50683,1.4896 8.26024,2.2344 1.83561,0.4965 3.8042,0.6429 5.50683,1.4896 9.71466,4.8322 7.17068,6.5329 17.03947,13.4738 5.66176,3.9821 12.44937,6.3102 17.78429,10.7205 3.66402,3.029 5.37054,7.9257 8.77924,11.2393 3.67125,3.5691 8.45464,5.8247 12.27745,9.2309 5.054,4.5032 14.91222,18.8637 17.55851,22.4788 3.73952,5.1088 14.73665,20.4543 19.56709,25.9772 3.64984,4.1731 7.88281,7.811 11.53266,11.9842 0.88511,1.0124 1.64186,2.2046 2.0086,3.4982 1.15971,4.0909 1.57571,8.3592 2.5276,12.5033 2.667,11.611 7.14068,22.9023 8.32767,34.7563 0.96608,9.648 -0.90009,19.3835 -1.94119,29.0237 -1.67044,15.468 -8.99547,53.1055 -11.62359,64.8181 -1.87349,8.3495 -4.46877,16.5204 -6.7032,24.7807 -3.41421,12.6218 -3.95919,17.6294 -10.94622,29.5427 -2.59031,4.4166 -6.20873,8.1443 -9.2308,12.2774 -4.79483,6.5576 -8.98029,13.5839 -14.21866,19.793 -4.94299,5.8589 -11.34308,10.3865 -16.22726,16.2947 -2.49779,3.0214 -3.26027,7.2264 -5.73259,10.2687 -10.58098,13.0205 -11.75577,9.6709 -23.22368,20.3119 -3.11691,2.8922 -5.13508,6.9067 -8.48603,9.5241 -4.23867,3.3109 -9.65285,4.8576 -13.99287,8.0345 -49.308976,36.0938 -0.92838,1.863 -19.72545,18.3033 -3.57837,3.1297 -7.925688,5.3705 -11.239419,8.7792 -3.569033,3.6713 -5.270133,9.0327 -9.230833,12.2774 -2.651833,2.1725 -7.169441,1.0156 -9.74982,3.2724 -2.950831,2.5809 -3.301093,7.1939 -5.73265,10.269 -2.126294,2.6889 -5.460661,4.2111 -7.741209,6.7705 -1.26502,1.4198 -0.224598,4.0871 -1.489579,5.5068 -0.89446,1.0039 -2.332174,1.3392 -3.498222,2.0086 -2.580411,2.2569 -5.556978,4.1285 -7.741248,6.7707 -5.175959,6.261 -9.479082,13.1953 -14.218635,19.7929 z"
         id="path10" /></clipPath><clipPath
       clipPathUnits="userSpaceOnUse"
       id="clipPath11"><rect
         style="fill:#c8b7b7;stroke-width:0.566929;stroke-linecap:round;stroke-linejoin:round;paint-order:markers fill stroke"
         id="rect12"
         width="114.15816"
         height="66.155258"
         x="-31.060699"
         y="156.11026"
         transform="rotate(0.14786586)" /></clipPath><clipPath
       clipPathUnits="userSpaceOnUse"
       id="clipPath14"><rect
         style="opacity:0.295107;fill:#ffffff;stroke-width:5.66931;stroke-linecap:round;stroke-linejoin:round;paint-order:markers fill stroke"
         id="rect14"
         width="230"
         height="130"
         x="-15"
         y="-15" /></clipPath><clipPath
       clipPathUnits="userSpaceOnUse"
       id="clipPath4"><rect
         style="fill:#a02c2c;fill-opacity:0.106095;stroke-width:4;stroke-linecap:round;stroke-linejoin:round;paint-order:markers fill stroke"
         id="rect4"
         width="196.10028"
         height="197.52647"
         x="-2942.6809"
         y="-1908.5886"
         transform="rotate(90)" /></clipPath><clipPath
       clipPathUnits="userSpaceOnUse"
       id="clipPath6"><rect
         style="opacity:0.295107;fill:#ffffff;stroke-width:5.66931;stroke-linecap:round;stroke-linejoin:round;paint-order:markers fill stroke"
         id="rect6"
         width="230"
         height="130"
         x="-215"
         y="-15"
         transform="rotate(-90)" /></clipPath><clipPath
       clipPathUnits="userSpaceOnUse"
       id="clipPath6-3"><rect
         style="opacity:0.295107;fill:#ffffff;stroke-width:5.66931;stroke-linecap:round;stroke-linejoin:round;paint-order:markers fill stroke"
         id="rect6-2"
         width="230"
         height="130"
         x="-215"
         y="-15"
         transform="rotate(-90)" /></clipPath><filter
       inkscape:collect="always"
       style="color-interpolation-filters:sRGB"
       id="filter64-7"
       x="-0.0069090328"
       y="-0.045602545"
       width="1.0138181"
       height="1.0912051"><feGaussianBlur
         inkscape:collect="always"
         stdDeviation="0.50952957"
         id="feGaussianBlur64-1" /></filter><filter
       inkscape:collect="always"
       style="color-interpolation-filters:sRGB"
       id="filter63-1"
       x="-0.0076748404"
       y="-0.027494582"
       width="1.0153497"
       height="1.0549892"><feGaussianBlur
         inkscape:collect="always"
         stdDeviation="0.80171742"
         id="feGaussianBlur63-5" /></filter><linearGradient
       inkscape:collect="always"
       xlink:href="#linearGradient16"
       id="linearGradient17-2"
       x1="176.53874"
       y1="-10.794533"
       x2="176.53874"
       y2="-7.1452212"
       gradientUnits="userSpaceOnUse"
       gradientTransform="matrix(0.24274561,0,0,0.24274561,26.969186,106.72655)" /><linearGradient
       id="linearGradient16"
       inkscape:collect="always"><stop
         style="stop-color:#d71f3b;stop-opacity:1;"
         offset="0"
         id="stop16" /><stop
         style="stop-color:#ec213e;stop-opacity:1;"
         offset="1"
         id="stop17" /></linearGradient><linearGradient
       inkscape:collect="always"
       xlink:href="#linearGradient7"
       id="linearGradient8-1"
       x1="11.427147"
       y1="-34.811161"
       x2="-6.2175198"
       y2="-17.166492"
       gradientUnits="userSpaceOnUse"
       gradientTransform="matrix(0.24275675,0,0,0.24275675,-52.169425,97.43701)" /><linearGradient
       id="linearGradient7"
       inkscape:collect="always"><stop
         style="stop-color:#d71f3b;stop-opacity:1;"
         offset="0"
         id="stop7" /><stop
         style="stop-color:#ff0000;stop-opacity:0.96350366;"
         offset="1"
         id="stop8" /></linearGradient><linearGradient
       inkscape:collect="always"
       xlink:href="#linearGradient14"
       id="linearGradient15-3"
       x1="121.74206"
       y1="-32.80444"
       x2="121.74206"
       y2="-26.190063"
       gradientUnits="userSpaceOnUse"
       gradientTransform="matrix(0.24439615,0,0,0.24110621,27.152562,106.00577)" /><linearGradient
       id="linearGradient14"
       inkscape:collect="always"><stop
         style="stop-color:#000000;stop-opacity:0.41987185;"
         offset="0"
         id="stop14" /><stop
         style="stop-color:#000000;stop-opacity:0;"
         offset="1"
         id="stop15" /></linearGradient><linearGradient
       inkscape:collect="always"
       xlink:href="#linearGradient13"
       id="linearGradient12-1"
       x1="-9.4598303"
       y1="-34.961578"
       x2="-15.953344"
       y2="-10.727452"
       gradientUnits="userSpaceOnUse"
       gradientTransform="matrix(0.23606855,-0.06240288,0.06325438,0.23289072,27.152562,106.00577)" /><linearGradient
       id="linearGradient13"
       inkscape:collect="always"><stop
         style="stop-color:#000000;stop-opacity:0.08759124;"
         offset="0"
         id="stop12" /><stop
         style="stop-color:#000000;stop-opacity:0;"
         offset="1"
         id="stop13" /></linearGradient><radialGradient
       inkscape:collect="always"
       xlink:href="#linearGradient2"
       id="radialGradient3"
       cx="-109.31753"
       cy="89.566872"
       fx="-109.31753"
       fy="89.566872"
       r="65"
       gradientTransform="matrix(1.4307016,-1.4307026,2.3151299,2.3151299,62.227022,-289.85064)"
       gradientUnits="userSpaceOnUse" /><linearGradient
       id="linearGradient2"
       inkscape:collect="always"><stop
         style="stop-color:#ffffff;stop-opacity:1;"
         offset="0"
         id="stop2" /><stop
         style="stop-color:#b0b3b4;stop-opacity:1;"
         offset="1"
         id="stop3" /></linearGradient><linearGradient
       inkscape:collect="always"
       xlink:href="#linearGradient18-4"
       id="linearGradient19-2"
       x1="978.97839"
       y1="-3262.6877"
       x2="978.97839"
       y2="-2734.8135"
       gradientUnits="userSpaceOnUse"
       gradientTransform="matrix(0.09780294,0,0,0.401102,41.253884,1303.8281)" /><linearGradient
       id="linearGradient18-4"
       inkscape:collect="always"><stop
         style="stop-color:#ffffff;stop-opacity:0.2773723;"
         offset="0"
         id="stop18-5" /><stop
         style="stop-color:#d1d1d1;stop-opacity:0.64659274;"
         offset="0.407455"
         id="stop4" /><stop
         style="stop-color:#ffffff;stop-opacity:0.6735341;"
         offset="0.51670951"
         id="stop20" /><stop
         style="stop-color:#afafaf;stop-opacity:0.37717909;"
         offset="1"
         id="stop19-5" /></linearGradient></defs><sodipodi:namedview
     id="namedview10"
     pagecolor="#ffffff"
     bordercolor="#000000"
     borderopacity="0.25"
     inkscape:showpageshadow="2"
     inkscape:pageopacity="0.0"
     inkscape:pagecheckerboard="0"
     inkscape:deskcolor="#d1d1d1"
     inkscape:document-units="pt"
     inkscape:zoom="1.8592627"
     inkscape:cx="50.8266"
     inkscape:cy="100.30858"
     inkscape:window-width="1920"
     inkscape:window-height="991"
     inkscape:window-x="-9"
     inkscape:window-y="-9"
     inkscape:window-maximized="1"
     inkscape:current-layer="brand"
     showguides="false" /><g
     id="brand"><g
       id="g21"
       transform="translate(-89.056824,7.5)"><rect
         style="fill:url(#radialGradient3);fill-opacity:1;stroke-width:1.5;stroke-linecap:round;stroke-linejoin:round"
         id="rect2"
         width="130"
         height="230"
         x="74.056824"
         y="-22.5" /><rect
         style="fill:url(#linearGradient19-2);fill-opacity:1;stroke:none;stroke-width:3.99997;stroke-linecap:round;stroke-linejoin:round;paint-order:markers fill stroke"
         id="rect16-7"
         width="130"
         height="230"
         x="74.056824"
         y="-22.5"
         rx="0"
         ry="0" /></g><path
       id="path55-1"
       style="font-weight:bold;font-size:87.646px;line-height:1;font-family:Montserrat;-inkscape-font-specification:'Montserrat Bold';text-align:center;letter-spacing:0.730384px;direction:rtl;text-anchor:middle;opacity:0.5;fill:#4a525b;fill-opacity:1;stroke:none;stroke-width:57.8589;stroke-linecap:round;stroke-linejoin:round;paint-order:markers stroke fill;filter:url(#filter64-7)"
       d="m 42.138973,-24.75501 v -26.04138 h 7.212207 v 7.35741 l -1.016486,-2.12977 q 1.161702,-2.75904 3.727116,-4.16275 2.565415,-1.45213 6.244118,-1.45213 v 6.97019 q -0.484036,-0.0484 -0.87127,-0.0484 -0.387234,-0.0484 -0.822866,-0.0484 -3.097864,0 -5.034026,1.79095 -1.887757,1.74255 -1.887757,5.46965 V -24.755 Z m 31.350011,-5.80849 q 1.887757,0 3.38828,-0.87127 1.500531,-0.87127 2.371802,-2.46861 0.87127,-1.64573 0.87127,-3.87232 0,-2.27499 -0.87127,-3.87232 -0.871271,-1.59734 -2.371802,-2.46862 -1.500523,-0.87127 -3.38828,-0.87127 -1.887757,0 -3.388288,0.87127 -1.500523,0.87128 -2.420199,2.46862 -0.871278,1.59733 -0.871278,3.87232 0,2.22659 0.871278,3.87232 0.919676,1.59734 2.420199,2.46861 1.500531,0.87127 3.388288,0.87127 z m 0,6.19572 q -4.162748,0 -7.40582,-1.74254 -3.194667,-1.74255 -5.082432,-4.7436 -1.839352,-3.04946 -1.839352,-6.92178 0,-3.92073 1.839352,-6.92178 1.887765,-3.04945 5.082432,-4.7436 3.243072,-1.74255 7.40582,-1.74255 4.114343,0 7.357415,1.74255 3.243072,1.69415 5.082424,4.69519 1.839352,3.00105 1.839352,6.97019 0,3.87232 -1.839352,6.92178 -1.839352,3.00105 -5.082424,4.7436 -3.243072,1.74254 -7.357415,1.74254 z m 30.846246,0 q -4.21116,0 -7.502632,-1.69414 -3.291477,-1.74255 -5.179234,-4.792 -1.839359,-3.04946 -1.839359,-6.92178 0,-3.92073 1.839359,-6.92178 1.887757,-3.04945 5.179234,-4.7436 3.291472,-1.74255 7.502632,-1.74255 4.11435,0 7.1638,1.74255 3.04946,1.69415 4.50157,4.88881 l -5.85689,3.14626 q -1.01648,-1.83935 -2.56541,-2.71063 -1.50053,-0.87127 -3.29147,-0.87127 -1.93616,0 -3.4851,0.87127 -1.548933,0.87128 -2.468608,2.46862 -0.871271,1.59733 -0.871271,3.87232 0,2.27499 0.871271,3.87232 0.919675,1.59734 2.468608,2.46861 1.54894,0.87127 3.4851,0.87127 1.79094,0 3.29147,-0.82287 1.54893,-0.87127 2.56541,-2.75903 l 5.85689,3.19467 q -1.45211,3.14626 -4.50157,4.88881 -3.04945,1.69414 -7.1638,1.69414 z m 26.51513,0 q -4.45318,0 -7.84146,-1.74254 -3.33989,-1.74255 -5.17924,-4.7436 -1.83935,-3.04946 -1.83935,-6.92178 0,-3.92073 1.79095,-6.92178 1.83935,-3.04945 4.98562,-4.7436 3.14626,-1.74255 7.1154,-1.74255 3.82391,0 6.87337,1.64574 3.09786,1.59733 4.88881,4.64679 1.79095,3.00105 1.79095,7.2122 0,0.43564 -0.0484,1.01649 -0.0484,0.53245 -0.0968,1.01649 h -21.1526 v -4.40477 h 17.18343 l -2.90424,1.30691 q 0,-2.03297 -0.82287,-3.5335 -0.82287,-1.50053 -2.27499,-2.32339 -1.45212,-0.87127 -3.38829,-0.87127 -1.93616,0 -3.43668,0.87127 -1.45212,0.82286 -2.27499,2.3718 -0.82287,1.50052 -0.82287,3.58189 v 1.1617 q 0,2.12978 0.91968,3.77552 0.96808,1.59733 2.66222,2.4686 1.74254,0.82287 4.06594,0.82287 2.08138,0 3.63031,-0.62925 1.59733,-0.62925 2.90424,-1.88775 l 4.01753,4.35636 q -1.79095,2.03297 -4.50158,3.14627 -2.71062,1.06488 -6.24411,1.06488 z m 25.12024,0 q -3.33988,0 -6.43774,-0.77446 -3.04946,-0.82287 -4.84041,-2.03297 l 2.51701,-5.42126 q 1.79096,1.11329 4.21116,1.83936 2.4686,0.67765 4.8404,0.67765 2.61382,0 3.67871,-0.62925 1.11329,-0.62925 1.11329,-1.74255 0,-0.91967 -0.87127,-1.35531 -0.82286,-0.48404 -2.22658,-0.72606 -1.40372,-0.24202 -3.09787,-0.48404 -1.64573,-0.24202 -3.33987,-0.62925 -1.69415,-0.43564 -3.09787,-1.25851 -1.40371,-0.82286 -2.27499,-2.22659 -0.82286,-1.40372 -0.82286,-3.6303 0,-2.46861 1.40372,-4.35636 1.45211,-1.88776 4.16274,-2.95265 2.71063,-1.1133 6.48615,-1.1133 2.66222,0 5.42125,0.58085 2.75903,0.58085 4.59839,1.69414 l -2.51702,5.37286 q -1.88776,-1.1133 -3.82392,-1.50053 -1.88775,-0.43563 -3.6787,-0.43563 -2.51702,0 -3.67871,0.67765 -1.1617,0.67765 -1.1617,1.74255 0,0.96808 0.82287,1.45212 0.87127,0.48404 2.27499,0.77446 1.40372,0.29042 3.04946,0.53245 1.69414,0.19361 3.38828,0.62925 1.69414,0.43563 3.04946,1.25851 1.40371,0.77446 2.27499,2.17818 0.87127,1.35531 0.87127,3.5819 0,2.4202 -1.45213,4.30796 -1.45211,1.83935 -4.21115,2.90425 -2.71062,1.06488 -6.63135,1.06488 z m 24.23466,0 q -3.33988,0 -6.43774,-0.77446 -3.04946,-0.82287 -4.84041,-2.03297 l 2.51701,-5.42126 q 1.79096,1.11329 4.21116,1.83936 2.4686,0.67765 4.8404,0.67765 2.61382,0 3.67871,-0.62925 1.11329,-0.62925 1.11329,-1.74255 0,-0.91967 -0.87127,-1.35531 -0.82286,-0.48404 -2.22658,-0.72606 -1.40372,-0.24202 -3.09787,-0.48404 -1.64573,-0.24202 -3.33987,-0.62925 -1.69415,-0.43564 -3.09787,-1.25851 -1.40371,-0.82286 -2.27499,-2.22659 -0.82286,-1.40372 -0.82286,-3.6303 0,-2.46861 1.40372,-4.35636 1.45212,-1.88776 4.16275,-2.95265 2.71062,-1.1133 6.48614,-1.1133 2.66222,0 5.42125,0.58085 2.75903,0.58085 4.59839,1.69414 l -2.51702,5.37286 q -1.88775,-1.1133 -3.82392,-1.50053 -1.88775,-0.43563 -3.6787,-0.43563 -2.51702,0 -3.67871,0.67765 -1.1617,0.67765 -1.1617,1.74255 0,0.96808 0.82287,1.45212 0.87127,0.48404 2.27499,0.77446 1.40372,0.29042 3.04946,0.53245 1.69414,0.19361 3.38828,0.62925 1.69414,0.43563 3.04946,1.25851 1.40371,0.77446 2.27499,2.17818 0.87127,1.35531 0.87127,3.5819 0,2.4202 -1.45213,4.30796 -1.45211,1.83935 -4.21115,2.90425 -2.71062,1.06488 -6.63135,1.06488 z m 31.8627,-0.38723 v -5.08243 l -0.48404,-1.11329 v -9.09996 q 0,-2.42021 -1.50053,-3.77552 -1.45212,-1.35531 -4.50157,-1.35531 -2.08138,0 -4.11435,0.67766 -1.98456,0.62925 -3.38828,1.74254 l -2.71064,-5.27604 q 2.12979,-1.50053 5.13084,-2.32339 3.00105,-0.82288 6.09891,-0.82288 5.9537,0 9.24517,2.80744 3.29148,2.80744 3.29148,8.76113 v 14.86005 z m -7.93827,0.38723 q -3.04945,0 -5.22764,-1.01649 -2.17818,-1.06488 -3.33987,-2.85583 -1.16171,-1.79095 -1.16171,-4.01754 0,-2.32339 1.1133,-4.06594 1.16169,-1.74254 3.63031,-2.71062 2.4686,-1.01649 6.43774,-1.01649 h 6.92177 v 4.40477 h -6.09891 q -2.66222,0 -3.6787,0.87127 -0.96808,0.87127 -0.96808,2.17818 0,1.45212 1.11329,2.32339 1.1617,0.82288 3.14626,0.82288 1.88776,0 3.38828,-0.87127 1.50053,-0.91969 2.17819,-2.66223 l 1.1617,3.48509 q -0.82288,2.51701 -3.00106,3.82392 -2.17818,1.30691 -5.61487,1.30691 z"
       transform="matrix(0.24439615,0,0,0.24110621,27.152562,106.00577)" /><path
       id="path33-8"
       style="font-weight:bold;font-size:87.646px;line-height:1;font-family:Montserrat;-inkscape-font-specification:'Montserrat Bold';text-align:center;letter-spacing:0.730384px;direction:rtl;text-anchor:middle;opacity:0.5;fill:#d71f3b;fill-opacity:1;stroke:none;stroke-width:57.8589;stroke-linecap:round;stroke-linejoin:round;paint-order:markers stroke fill;filter:url(#filter63-1)"
       d="m 157.4184,-6.506951 q -0.8654,0 -1.6681,-0.200674 -0.79015,-0.213216 -1.25421,-0.526768 l 0.65219,-1.404715 q 0.46406,0.288468 1.09116,0.4766 0.63965,0.175589 1.25421,0.175589 0.67728,0 0.9532,-0.163047 0.28847,-0.163048 0.28847,-0.451516 0,-0.2383 -0.22576,-0.351179 -0.21321,-0.125421 -0.57693,-0.188131 -0.36372,-0.06271 -0.8027,-0.125421 -0.42643,-0.06271 -0.8654,-0.163048 -0.43898,-0.112878 -0.8027,-0.326094 -0.36372,-0.213216 -0.58948,-0.576937 -0.21321,-0.363721 -0.21321,-0.940657 0,-0.639647 0.36372,-1.128789 0.37626,-0.489142 1.07862,-0.765068 0.70236,-0.288469 1.68064,-0.288469 0.68982,0 1.40472,0.150506 0.7149,0.150505 1.1915,0.438973 l -0.65219,1.392173 q -0.48914,-0.288468 -0.99083,-0.388805 -0.48914,-0.112879 -0.9532,-0.112879 -0.65219,0 -0.9532,0.17559 -0.30101,0.175589 -0.30101,0.451515 0,0.250842 0.21322,0.376263 0.22576,0.125421 0.58948,0.200674 0.36372,0.07525 0.79015,0.137963 0.43897,0.05017 0.87795,0.163047 0.43897,0.112879 0.79015,0.326095 0.36372,0.200673 0.58948,0.564394 0.22575,0.351179 0.22575,0.928116 0,0.627105 -0.37626,1.116247 -0.37626,0.476599 -1.09116,0.752526 -0.70236,0.275926 -1.71827,0.275926 z m 5.40217,-0.100337 v -6.74765 h 1.95657 v 6.74765 z m 0.97828,-7.688307 q -0.53931,0 -0.87795,-0.313553 -0.33863,-0.313552 -0.33863,-0.77761 0,-0.464062 0.33863,-0.777612 0.33864,-0.31355 0.87795,-0.31355 0.53931,0 0.87795,0.30101 0.33864,0.28847 0.33864,0.752526 0,0.489142 -0.33864,0.815236 -0.3261,0.313553 -0.87795,0.313553 z m 6.07945,7.788644 q -0.86541,0 -1.6681,-0.200674 -0.79015,-0.213216 -1.25421,-0.526768 l 0.65219,-1.404715 q 0.46405,0.288468 1.09116,0.4766 0.63965,0.175589 1.25421,0.175589 0.67727,0 0.9532,-0.163047 0.28847,-0.163048 0.28847,-0.451516 0,-0.2383 -0.22576,-0.351179 -0.21322,-0.125421 -0.57694,-0.188131 -0.36372,-0.06271 -0.80269,-0.125421 -0.42643,-0.06271 -0.86541,-0.163048 -0.43897,-0.112878 -0.80269,-0.326094 -0.36372,-0.213216 -0.58948,-0.576937 -0.21321,-0.363721 -0.21321,-0.940657 0,-0.639647 0.36372,-1.128789 0.37626,-0.489142 1.07862,-0.765068 0.70235,-0.288469 1.68064,-0.288469 0.68981,0 1.40471,0.150506 0.7149,0.150505 1.1915,0.438973 l -0.65219,1.392173 q -0.48914,-0.288468 -0.99082,-0.388805 -0.48914,-0.112879 -0.9532,-0.112879 -0.65219,0 -0.9532,0.17559 -0.30101,0.175589 -0.30101,0.451515 0,0.250842 0.21321,0.376263 0.22576,0.125421 0.58948,0.200674 0.36372,0.07525 0.79015,0.137963 0.43898,0.05017 0.87795,0.163047 0.43898,0.112879 0.79015,0.326095 0.36372,0.200673 0.58948,0.564394 0.22576,0.351179 0.22576,0.928116 0,0.627105 -0.37626,1.116247 -0.37627,0.476599 -1.09117,0.752526 -0.70235,0.275926 -1.71826,0.275926 z m 8.16143,0 q -1.1915,0 -1.85623,-0.602021 -0.66474,-0.614563 -0.66474,-1.818605 v -5.919871 h 1.95657 v 5.894787 q 0,0.426432 0.22576,0.664732 0.22576,0.225757 0.61456,0.225757 0.46406,0 0.79015,-0.250842 l 0.52677,1.379631 q -0.30101,0.213216 -0.72744,0.326095 -0.41389,0.100337 -0.8654,0.100337 z m -3.56196,-5.342935 v -1.505052 h 4.6782 v 1.505052 z m 10.40645,5.342935 q -1.15387,0 -2.03182,-0.451516 -0.8654,-0.451515 -1.342,-1.229126 -0.4766,-0.790152 -0.4766,-1.79352 0,-1.01591 0.46406,-1.79352 0.4766,-0.790153 1.29183,-1.229126 0.81524,-0.451516 1.84369,-0.451516 0.99083,0 1.78098,0.426432 0.80269,0.413889 1.26675,1.204041 0.46406,0.777611 0.46406,1.868773 0,0.112879 -0.0125,0.263384 -0.0126,0.137963 -0.0251,0.263384 h -5.4809 v -1.141331 h 4.45245 l -0.75253,0.338637 q 0,-0.526768 -0.21321,-0.915573 -0.21322,-0.388805 -0.58948,-0.602021 -0.37626,-0.225758 -0.87795,-0.225758 -0.50168,0 -0.89049,0.225758 -0.37626,0.213216 -0.58947,0.614563 -0.21322,0.388805 -0.21322,0.928115 v 0.301011 q 0,0.551852 0.2383,0.978283 0.25084,0.41389 0.68981,0.639648 0.45152,0.213215 1.05354,0.213215 0.53931,0 0.94066,-0.163047 0.41389,-0.163047 0.75252,-0.489142 l 1.041,1.128789 q -0.46406,0.526768 -1.16642,0.815237 -0.70235,0.275926 -1.61793,0.275926 z m 5.57776,-0.100337 v -6.74765 h 1.86878 v 1.843689 l -0.35118,-0.53931 q 0.35118,-0.689816 0.99082,-1.040995 0.65219,-0.363721 1.47997,-0.363721 0.92812,0 1.61793,0.4766 0.70236,0.464058 0.92812,1.4298 l -0.68982,-0.188132 q 0.33864,-0.790152 1.07862,-1.25421 0.75253,-0.464058 1.71827,-0.464058 0.80269,0 1.41726,0.326095 0.6271,0.313552 0.97828,0.978284 0.36372,0.652189 0.36372,1.680641 v 3.862967 h -1.95657 v -3.561956 q 0,-0.815237 -0.33863,-1.204042 -0.33864,-0.388805 -0.9532,-0.388805 -0.42643,0 -0.76507,0.200673 -0.33864,0.188132 -0.52677,0.576937 -0.18813,0.388805 -0.18813,0.990826 v 3.386367 h -1.95657 v -3.561956 q 0,-0.815237 -0.33863,-1.204042 -0.3261,-0.388805 -0.94066,-0.388805 -0.42643,0 -0.76507,0.200673 -0.33864,0.188132 -0.52677,0.576937 -0.18813,0.388805 -0.18813,0.990826 v 3.386367 z m 18.30799,0 v -1.316921 l -0.12543,-0.288468 v -2.357915 q 0,-0.627105 -0.3888,-0.978283 -0.37626,-0.351179 -1.16642,-0.351179 -0.53931,0 -1.06607,0.175589 -0.51423,0.163047 -0.87795,0.451516 l -0.70236,-1.367089 q 0.55185,-0.388805 1.32946,-0.602021 0.77761,-0.213216 1.58031,-0.213216 1.54268,0 2.39554,0.727442 0.85286,0.727442 0.85286,2.27012 v 3.850425 z m -2.05691,0.100337 q -0.79015,0 -1.35455,-0.263384 -0.56439,-0.275927 -0.8654,-0.739984 -0.30101,-0.464058 -0.30101,-1.040995 0,-0.60202 0.28847,-1.053536 0.30101,-0.451516 0.94066,-0.702358 0.63964,-0.263384 1.66809,-0.263384 h 1.79352 v 1.141331 h -1.5803 q -0.68982,0 -0.9532,0.225758 -0.25084,0.225758 -0.25084,0.564395 0,0.376263 0.28847,0.602021 0.30101,0.213215 0.81523,0.213215 0.48915,0 0.87795,-0.225758 0.38881,-0.238299 0.56439,-0.689815 l 0.30102,0.903031 q -0.21322,0.652189 -0.77761,0.990826 -0.5644,0.338637 -1.45489,0.338637 z m 8.93905,0 q -0.86541,0 -1.6681,-0.200674 -0.79015,-0.213216 -1.25421,-0.526768 l 0.65219,-1.404715 q 0.46406,0.288468 1.09116,0.4766 0.63965,0.175589 1.25421,0.175589 0.67727,0 0.9532,-0.163047 0.28847,-0.163048 0.28847,-0.451516 0,-0.2383 -0.22576,-0.351179 -0.21321,-0.125421 -0.57694,-0.188131 -0.36372,-0.06271 -0.80269,-0.125421 -0.42643,-0.06271 -0.8654,-0.163048 -0.43898,-0.112878 -0.8027,-0.326094 -0.36372,-0.213216 -0.58948,-0.576937 -0.21321,-0.363721 -0.21321,-0.940657 0,-0.639647 0.36372,-1.128789 0.37626,-0.489142 1.07862,-0.765068 0.70236,-0.288469 1.68064,-0.288469 0.68981,0 1.40471,0.150506 0.7149,0.150505 1.1915,0.438973 l -0.65219,1.392173 q -0.48914,-0.288468 -0.99082,-0.388805 -0.48914,-0.112879 -0.9532,-0.112879 -0.65219,0 -0.9532,0.17559 -0.30101,0.175589 -0.30101,0.451515 0,0.250842 0.21322,0.376263 0.22575,0.125421 0.58947,0.200674 0.36372,0.07525 0.79016,0.137963 0.43897,0.05017 0.87794,0.163047 0.43898,0.112879 0.79016,0.326095 0.36372,0.200673 0.58947,0.564394 0.22576,0.351179 0.22576,0.928116 0,0.627105 -0.37626,1.116247 -0.37626,0.476599 -1.09116,0.752526 -0.70236,0.275926 -1.71827,0.275926 z M 38.114534,-40.67447 A 34.990925,34.990925 0 0 1 3.1236087,-5.683548 34.990925,34.990925 0 0 1 -31.867316,-40.67447 34.990925,34.990925 0 0 1 3.1236087,-75.6654 34.990925,34.990925 0 0 1 38.114534,-40.67447 Z"
       transform="matrix(0.24439615,0,0,0.24110621,27.152562,106.00577)" /><path
       id="text1-4-9"
       style="font-weight:bold;font-size:63.2485px;line-height:1;font-family:Montserrat;-inkscape-font-specification:'Montserrat Bold';text-align:center;letter-spacing:0.527072px;direction:rtl;text-anchor:middle;fill:#4a525b;fill-opacity:1;stroke:none;stroke-width:10.1354;stroke-linecap:round;stroke-linejoin:round;paint-order:markers stroke fill"
       d="m 37.451171,100.03723 v -6.278742 h 1.762635 v 1.773919 l -0.248425,-0.513503 q 0.283915,-0.66522 0.910893,-1.003664 0.626977,-0.350116 1.526038,-0.350116 v 1.680555 q -0.118296,-0.01166 -0.212935,-0.01166 -0.09464,-0.01168 -0.201105,-0.01168 -0.757106,0 -1.230297,0.431808 -0.46136,0.42014 -0.46136,1.318768 v 2.964315 z m 7.661822,-1.400466 q 0.46136,0 0.828082,-0.210069 0.366724,-0.210068 0.579659,-0.595195 0.212936,-0.396798 0.212936,-0.933642 0,-0.548514 -0.212936,-0.933641 -0.212935,-0.385127 -0.579659,-0.595198 -0.366722,-0.210069 -0.828082,-0.210069 -0.461361,0 -0.828085,0.210069 -0.366722,0.210071 -0.591487,0.595198 -0.212937,0.385127 -0.212937,0.933641 0,0.536844 0.212937,0.933642 0.224765,0.385127 0.591487,0.595195 0.366724,0.210069 0.828085,0.210069 z m 0,1.493826 q -1.01736,0 -1.809954,-0.420137 -0.780765,-0.420139 -1.242127,-1.143712 -0.449531,-0.735241 -0.449531,-1.668883 0,-0.945312 0.449531,-1.668885 0.461362,-0.735241 1.242127,-1.14371 0.792594,-0.420139 1.809954,-0.420139 1.005529,0 1.798124,0.420139 0.792594,0.408469 1.242124,1.132039 0.449531,0.723573 0.449531,1.680556 0,0.933642 -0.449531,1.668883 -0.44953,0.723573 -1.242124,1.143712 -0.792595,0.420137 -1.798124,0.420137 z m 7.538702,0 q -1.029191,0 -1.833613,-0.408468 -0.804424,-0.420137 -1.265785,-1.155381 -0.449532,-0.735241 -0.449532,-1.668883 0,-0.945312 0.449532,-1.668885 0.461361,-0.735241 1.265785,-1.14371 0.804422,-0.420139 1.833613,-0.420139 1.005532,0 1.750806,0.420139 0.745276,0.408469 1.100166,1.178722 l -1.431401,0.758584 q -0.248424,-0.443479 -0.626977,-0.65355 -0.366724,-0.210069 -0.804422,-0.210069 -0.47319,0 -0.851745,0.210069 -0.378553,0.210071 -0.603318,0.595198 -0.212935,0.385127 -0.212935,0.933641 0,0.548514 0.212935,0.933642 0.224765,0.385127 0.603318,0.595195 0.378555,0.210069 0.851745,0.210069 0.437698,0 0.804422,-0.198398 0.378553,-0.210068 0.626977,-0.66522 l 1.431401,0.770255 q -0.35489,0.758584 -1.100166,1.178721 -0.745274,0.408468 -1.750806,0.408468 z m 6.480196,0 q -1.08834,0 -1.916423,-0.420137 -0.816256,-0.420139 -1.265786,-1.143712 -0.44953,-0.735241 -0.44953,-1.668883 0,-0.945312 0.437701,-1.668885 0.44953,-0.735241 1.218467,-1.14371 0.768934,-0.420139 1.738976,-0.420139 0.934549,0 1.679825,0.396797 0.757105,0.385127 1.194807,1.120371 0.437701,0.723571 0.437701,1.738906 0,0.105035 -0.01183,0.245081 -0.01183,0.128377 -0.02366,0.245081 h -5.169614 v -1.062016 h 4.199564 l -0.709785,0.315104 q 0,-0.490162 -0.201107,-0.851948 -0.201106,-0.361787 -0.555998,-0.560185 -0.354893,-0.210069 -0.828085,-0.210069 -0.473191,0 -0.839912,0.210069 -0.354892,0.198398 -0.555999,0.571856 -0.201106,0.361785 -0.201106,0.863616 v 0.280094 q 0,0.513502 0.224766,0.9103 0.236595,0.385127 0.650637,0.595196 0.42587,0.198399 0.9937,0.198399 0.508681,0 0.887234,-0.151716 0.390381,-0.151717 0.709785,-0.45515 l 0.981868,1.050346 q -0.437701,0.490162 -1.100168,0.758585 -0.662465,0.256749 -1.526037,0.256749 z m 6.13929,0 q -0.816254,0 -1.573359,-0.186726 -0.745276,-0.1984 -1.182977,-0.490163 l 0.615147,-1.307097 q 0.437704,0.268421 1.029191,0.443479 0.603317,0.163387 1.182976,0.163387 0.638807,0 0.899062,-0.151716 0.272084,-0.151717 0.272084,-0.42014 0,-0.221739 -0.212935,-0.326775 -0.201104,-0.116704 -0.544168,-0.175056 -0.343063,-0.05835 -0.757107,-0.116706 -0.40221,-0.05835 -0.816252,-0.151717 -0.414043,-0.105035 -0.757107,-0.303433 -0.343061,-0.198398 -0.555999,-0.536844 -0.201104,-0.338445 -0.201104,-0.875289 0,-0.595196 0.343064,-1.050346 0.35489,-0.45515 1.017358,-0.711902 0.662467,-0.268422 1.58519,-0.268422 0.650636,0 1.324932,0.140045 0.674297,0.140048 1.123829,0.408469 l -0.61515,1.295429 q -0.461361,-0.268423 -0.934551,-0.361788 -0.461359,-0.105033 -0.89906,-0.105033 -0.61515,0 -0.899063,0.163385 -0.283915,0.163388 -0.283915,0.42014 0,0.23341 0.201106,0.350116 0.212936,0.116705 0.555999,0.186728 0.343064,0.07002 0.745277,0.128377 0.414041,0.04668 0.828082,0.151716 0.414041,0.105034 0.745276,0.303433 0.343062,0.186728 0.555999,0.525173 0.212935,0.326775 0.212935,0.863619 0,0.583525 -0.354895,1.038677 -0.35489,0.443479 -1.029189,0.700231 -0.662465,0.256749 -1.620676,0.256749 z m 5.922858,0 q -0.816254,0 -1.573359,-0.186726 -0.745277,-0.1984 -1.182978,-0.490163 l 0.615148,-1.307097 q 0.437703,0.268421 1.029191,0.443479 0.603316,0.163387 1.182975,0.163387 0.638808,0 0.899063,-0.151716 0.272084,-0.151717 0.272084,-0.42014 0,-0.221739 -0.212936,-0.326775 -0.201103,-0.116704 -0.544167,-0.175056 -0.343064,-0.05835 -0.757108,-0.116706 -0.40221,-0.05835 -0.816251,-0.151717 -0.414044,-0.105035 -0.757107,-0.303433 -0.343062,-0.198398 -0.555999,-0.536844 -0.201104,-0.338445 -0.201104,-0.875289 0,-0.595196 0.343064,-1.050346 0.354892,-0.45515 1.01736,-0.711902 0.662465,-0.268422 1.585187,-0.268422 0.650637,0 1.324933,0.140045 0.674296,0.140048 1.123829,0.408469 l -0.61515,1.295429 q -0.461359,-0.268423 -0.934551,-0.361788 -0.461359,-0.105033 -0.899061,-0.105033 -0.61515,0 -0.899062,0.163385 -0.283915,0.163388 -0.283915,0.42014 0,0.23341 0.201106,0.350116 0.212935,0.116705 0.555999,0.186728 0.343064,0.07002 0.745276,0.128377 0.414041,0.04668 0.828083,0.151716 0.414041,0.105034 0.745276,0.303433 0.343061,0.186728 0.555999,0.525173 0.212935,0.326775 0.212935,0.863619 0,0.583525 -0.354895,1.038677 -0.35489,0.443479 -1.029189,0.700231 -0.662465,0.256749 -1.620676,0.256749 z m 7.787121,-0.0934 v -1.225408 l -0.118298,-0.268421 v -2.194057 q 0,-0.583527 -0.366723,-0.910302 -0.354893,-0.326773 -1.100167,-0.326773 -0.508681,0 -1.005531,0.163387 -0.485019,0.151717 -0.828083,0.420138 l -0.66247,-1.272085 q 0.520513,-0.361788 1.253958,-0.560186 0.733445,-0.198399 1.49055,-0.198399 1.455061,0 2.259484,0.676891 0.804425,0.676889 0.804425,2.112362 v 3.582853 z m -1.940083,0.0934 q -0.745274,0 -1.277615,-0.24508 -0.532339,-0.25675 -0.816251,-0.688561 -0.283918,-0.431808 -0.283918,-0.968651 0,-0.560186 0.272087,-0.980325 0.283912,-0.420138 0.887233,-0.653548 0.603317,-0.245081 1.573359,-0.245081 h 1.691654 v 1.062016 h -1.49055 q -0.650636,0 -0.89906,0.210069 -0.236595,0.210071 -0.236595,0.525175 0,0.350114 0.272084,0.560183 0.283915,0.1984 0.768934,0.1984 0.461361,0 0.828082,-0.210069 0.366724,-0.221741 0.532341,-0.641879 l 0.283915,0.840277 q -0.201108,0.606867 -0.733447,0.921971 -0.532339,0.315103 -1.372253,0.315103 z" /><ellipse
       style="fill:#d71f3b;fill-opacity:1;stroke:none;stroke-width:0.494242;stroke-linecap:round;stroke-linejoin:round;paint-order:markers stroke fill"
       id="path8-1-2"
       cx="27.915966"
       cy="96.198944"
       rx="8.5516472"
       ry="8.4365292" /><path
       id="text8-2-7"
       style="font-weight:bold;font-size:87.646px;line-height:1;font-family:Montserrat;-inkscape-font-specification:'Montserrat Bold';text-align:center;letter-spacing:0.730384px;direction:rtl;text-anchor:middle;fill:#ffffff;stroke:none;stroke-width:14.045;stroke-linecap:round;stroke-linejoin:round;paint-order:markers stroke fill"
       d="M 26.120641,103.35421 V 91.679121 h 4.535899 c 1.027294,0 1.912516,0.167115 2.655663,0.501343 0.743148,0.323446 1.316902,0.792442 1.721264,1.40699 0.404361,0.614548 0.606541,1.347692 0.606541,2.199435 0,0.840959 -0.20218,1.568713 -0.606541,2.183261 -0.404362,0.614549 -0.978116,1.088935 -1.721264,1.423162 -0.743147,0.323446 -1.628369,0.485169 -2.655663,0.485169 h -3.06053 l 1.180294,-1.180577 v 4.656306 z m 2.655663,-4.365206 -1.180294,-1.245267 h 2.912994 c 0.81965,0 1.431653,-0.172505 1.836014,-0.517514 0.40436,-0.345009 0.60654,-0.824786 0.60654,-1.439334 0,-0.62533 -0.20218,-1.110499 -0.60654,-1.45551 -0.404361,-0.345009 -1.016364,-0.517513 -1.836014,-0.517513 H 27.59601 l 1.180294,-1.245268 z"
       sodipodi:nodetypes="ccscssscsccccccsssssccc" /><text
       xml:space="preserve"
       style="font-style:normal;font-variant:normal;font-weight:bold;font-stretch:normal;font-size:3.04454px;line-height:1;font-family:Montserrat;-inkscape-font-specification:'Montserrat Bold';text-align:end;letter-spacing:0.245763px;writing-mode:lr-tb;direction:rtl;text-anchor:end;fill:url(#linearGradient17-2);fill-opacity:1;stroke:none;stroke-width:2.62622;stroke-linecap:round;stroke-linejoin:round;paint-order:markers stroke fill"
       x="64.411545"
       y="105.12271"
       id="text9-3-9"
       transform="scale(1.0067995,0.99324643)"><tspan
         sodipodi:role="line"
         id="tspan8-3-5"
         style="letter-spacing:0.245763px;fill:url(#linearGradient17-2);fill-opacity:1;stroke-width:2.62622"
         x="64.411545"
         y="105.12271">sistemas</tspan></text><path
       id="path2-4"
       style="font-weight:bold;font-size:87.646px;line-height:1;font-family:Montserrat;-inkscape-font-specification:'Montserrat Bold';text-align:center;letter-spacing:0.730384px;direction:rtl;text-anchor:middle;fill:#ffffff;stroke:none;stroke-width:14.045;stroke-linecap:round;stroke-linejoin:round;paint-order:markers stroke fill"
       d="M 26.120641,103.35421 V 91.679121 h 4.535899 c 1.027294,0 1.912516,0.167115 2.655663,0.501343 0.743148,0.323446 1.316902,0.792442 1.721264,1.40699 0.404361,0.614548 0.606541,1.347692 0.606541,2.199435 0,0.840959 -0.20218,1.568713 -0.606541,2.183261 -0.404362,0.614549 -0.978116,1.088935 -1.721264,1.423162 -0.743147,0.323446 -1.628369,0.485169 -2.655663,0.485169 h -3.06053 l 1.180294,-1.180577 v 4.656306 z m 2.655663,-4.365206 -1.180294,-1.245267 h 2.912994 c 0.81965,0 1.431653,-0.172505 1.836014,-0.517514 0.40436,-0.345009 0.60654,-0.824786 0.60654,-1.439334 0,-0.62533 -0.20218,-1.110499 -0.60654,-1.45551 -0.404361,-0.345009 -1.016364,-0.517513 -1.836014,-0.517513 H 27.59601 l 1.180294,-1.245268 z"
       sodipodi:nodetypes="ccscssscsccccccsssssccc" /><circle
       style="fill:url(#linearGradient8-1);fill-opacity:1;stroke:none;stroke-width:0.494265;stroke-linecap:round;stroke-linejoin:round;paint-order:markers stroke fill"
       id="circle3-3"
       cx="-48.881405"
       cy="88.095711"
       r="8.4942837"
       transform="matrix(0.71188203,-0.70229906,0.71188203,0.70229906,0,0)" /><path
       id="path3-1"
       style="font-weight:bold;font-size:87.646px;line-height:1;font-family:Montserrat;-inkscape-font-specification:'Montserrat Bold';text-align:center;letter-spacing:0.730384px;direction:rtl;text-anchor:middle;fill:#ffffff;stroke:none;stroke-width:14.045;stroke-linecap:round;stroke-linejoin:round;paint-order:markers stroke fill"
       d="M 26.120641,103.35421 V 91.679121 h 4.535899 c 1.027294,0 1.912516,0.167115 2.655663,0.501343 0.743148,0.323446 1.316902,0.792442 1.721264,1.40699 0.404361,0.614548 0.606541,1.347692 0.606541,2.199435 0,0.840959 -0.20218,1.568713 -0.606541,2.183261 -0.404362,0.614549 -0.978116,1.088935 -1.721264,1.423162 -0.743147,0.323446 -1.628369,0.485169 -2.655663,0.485169 h -3.06053 l 1.180294,-1.180577 v 4.656306 z m 2.655663,-4.365206 -1.180294,-1.245267 h 2.912994 c 0.81965,0 1.431653,-0.172505 1.836014,-0.517514 0.40436,-0.345009 0.60654,-0.824786 0.60654,-1.439334 0,-0.62533 -0.20218,-1.110499 -0.60654,-1.45551 -0.404361,-0.345009 -1.016364,-0.517513 -1.836014,-0.517513 H 27.59601 l 1.180294,-1.245268 z"
       sodipodi:nodetypes="ccscssscsccccccsssssccc" /><path
       id="path10-2"
       style="font-weight:bold;font-size:63.2485px;line-height:1;font-family:Montserrat;-inkscape-font-specification:'Montserrat Bold';text-align:center;letter-spacing:0.527072px;direction:rtl;text-anchor:middle;fill:url(#linearGradient15-3);fill-opacity:1;stroke:none;stroke-width:10.1354;stroke-linecap:round;stroke-linejoin:round;paint-order:markers stroke fill"
       d="m 37.451524,96.830157 v 3.207123 h 1.845272 v -2.964293 c 0,-0.08412 0.0028,-0.164998 0.0089,-0.24283 z m 4.160161,0 c -3.91e-4,0.02253 0,0.04518 0,0.0679 0,0.622427 0.149688,1.178501 0.449376,1.668662 0.307575,0.482382 0.721547,0.863768 1.242056,1.143861 0.528396,0.280091 1.131406,0.42016 1.809646,0.42016 0.670353,0 1.269914,-0.140069 1.79831,-0.42016 0.528396,-0.280093 0.94237,-0.661479 1.242057,-1.143861 0.299687,-0.490161 0.449375,-1.046235 0.449375,-1.668662 0,-0.02273 3.91e-4,-0.04537 0,-0.0679 h -1.869563 c 5.63e-4,0.02241 8.07e-4,0.04506 8.07e-4,0.0679 0,0.357895 -0.07099,0.669247 -0.212947,0.93378 -0.141957,0.256751 -0.335252,0.455049 -0.579735,0.595095 -0.244481,0.140046 -0.520734,0.21008 -0.828307,0.21008 -0.307574,0 -0.583016,-0.07003 -0.827498,-0.21008 -0.244482,-0.140046 -0.442036,-0.338344 -0.59188,-0.595095 -0.141958,-0.264533 -0.212947,-0.575885 -0.212947,-0.93378 0,-0.02284 2.44e-4,-0.04548 8.06e-4,-0.0679 z m 7.492015,0 c -3.91e-4,0.02253 -8.07e-4,0.04518 -8.07e-4,0.0679 0,0.622427 0.149687,1.178501 0.449376,1.668662 0.307573,0.490162 0.729254,0.874952 1.265537,1.155044 0.536281,0.272312 1.147808,0.408977 1.833936,0.408977 0.670354,0 1.253689,-0.136665 1.750539,-0.408977 0.49685,-0.280092 0.863769,-0.672486 1.100361,-1.178209 l -1.431523,-0.770029 c -0.165615,0.303435 -0.374327,0.524544 -0.626695,0.66459 -0.244484,0.132265 -0.513029,0.198897 -0.804829,0.198897 -0.315459,0 -0.599418,-0.07003 -0.851786,-0.21008 -0.252369,-0.140046 -0.453372,-0.338344 -0.603216,-0.595095 -0.141957,-0.256752 -0.212947,-0.568104 -0.212947,-0.93378 0,-0.02284 2.45e-4,-0.04548 8.07e-4,-0.0679 z m 6.39732,0 c -4.89e-4,0.02253 -7.33e-4,0.04518 -7.33e-4,0.0679 0,0.622427 0.149687,1.178501 0.449376,1.668662 0.299685,0.482382 0.721364,0.863768 1.265537,1.143861 0.552054,0.280091 1.190964,0.42016 1.916522,0.42016 0.575715,0 1.084616,-0.086 1.526257,-0.257208 0.441646,-0.178949 0.808563,-0.431273 1.100362,-0.758047 l -0.982148,-1.050403 c -0.212935,0.202289 -0.449029,0.354163 -0.709284,0.455308 -0.252368,0.101144 -0.548293,0.151769 -0.887414,0.151769 -0.378553,0 -0.710379,-0.06663 -0.994294,-0.198898 -0.276026,-0.140046 -0.492446,-0.338344 -0.650177,-0.595095 -0.08161,-0.144068 -0.140968,-0.299345 -0.178131,-0.466491 h 4.815198 c 0.0079,-0.0778 0.01559,-0.159642 0.02349,-0.245227 0.0079,-0.09336 0.01215,-0.175203 0.01215,-0.245227 0,-0.0306 -2.12e-4,-0.06085 -7.33e-4,-0.09106 z m 7.569745,0 c 0.103627,0.108419 0.221709,0.2011 0.354641,0.277977 0.228711,0.132265 0.481028,0.233515 0.757056,0.303538 0.276029,0.06224 0.548833,0.112868 0.816973,0.15177 0.276028,0.0389 0.528345,0.07772 0.757056,0.116622 0.228708,0.0389 0.410038,0.09713 0.544106,0.174934 0.141958,0.07002 0.212947,0.178877 0.212947,0.326704 0,0.178948 -0.09066,0.319016 -0.272054,0.420161 -0.173502,0.101144 -0.473686,0.151769 -0.899559,0.151769 -0.386439,0 -0.780738,-0.05483 -1.18295,-0.163751 -0.394324,-0.116706 -0.737307,-0.264379 -1.029109,-0.443326 l -0.61536,1.306813 c 0.291799,0.194508 0.686098,0.358187 1.182948,0.490454 0.504737,0.124488 1.029859,0.186918 1.574029,0.186918 0.638808,0 1.178534,-0.086 1.620178,-0.257211 0.449532,-0.171168 0.792518,-0.404083 1.02911,-0.699736 0.236598,-0.303434 0.355453,-0.650203 0.355453,-1.03922 0,-0.357896 -0.07099,-0.645637 -0.212948,-0.863487 -0.112561,-0.178907 -0.252314,-0.325615 -0.419418,-0.440929 z m 5.922846,0 c 0.103626,0.108419 0.221708,0.2011 0.35464,0.277977 0.228711,0.132265 0.481028,0.233515 0.757057,0.303538 0.276028,0.06224 0.548833,0.112868 0.816972,0.15177 0.276028,0.0389 0.528345,0.07772 0.757056,0.116622 0.228708,0.0389 0.410038,0.09713 0.544107,0.174934 0.141957,0.07002 0.212947,0.178877 0.212947,0.326704 0,0.178948 -0.09066,0.319016 -0.272055,0.420161 -0.173501,0.101144 -0.473688,0.151769 -0.899558,0.151769 -0.38644,0 -0.780739,-0.05483 -1.182951,-0.163751 -0.394323,-0.116706 -0.737307,-0.264379 -1.029108,-0.443326 l -0.61536,1.306813 c 0.291799,0.194508 0.686098,0.358187 1.182948,0.490454 0.504737,0.124488 1.029858,0.186918 1.574028,0.186918 0.638808,0 1.178535,-0.086 1.620178,-0.257211 0.449533,-0.171168 0.792518,-0.404083 1.029111,-0.699736 0.236597,-0.303434 0.355452,-0.650203 0.355452,-1.03922 0,-0.357896 -0.07099,-0.645637 -0.212947,-0.863487 -0.112562,-0.178907 -0.252315,-0.325615 -0.419418,-0.440929 z m 6.36898,0 c -0.176864,0.119141 -0.319716,0.258245 -0.427512,0.417764 -0.181391,0.280093 -0.272055,0.606653 -0.272055,0.98011 0,0.357896 0.09492,0.681054 0.284199,0.968927 0.189275,0.287873 0.461271,0.517386 0.816163,0.688553 0.354893,0.163389 0.780834,0.245229 1.277681,0.245229 0.559944,0 1.017524,-0.10545 1.372417,-0.315522 0.239603,-0.141828 0.428639,-0.327863 0.56759,-0.558352 v 0.780414 h 1.727057 v -3.207123 z m 2.234732,0.581515 h 1.265537 v 0.641425 c -0.110411,0.280092 -0.287481,0.494396 -0.531963,0.642223 -0.244481,0.140046 -0.520734,0.210081 -0.828307,0.210081 -0.323346,0 -0.579925,-0.06663 -0.769203,-0.198898 -0.181388,-0.140045 -0.272054,-0.326538 -0.272054,-0.559948 0,-0.21007 0.0787,-0.384755 0.236429,-0.524802 0.165615,-0.140046 0.465802,-0.210081 0.899561,-0.210081 z" /><path
       id="circle11-3"
       style="fill:url(#linearGradient12-1);fill-opacity:1;stroke:none;stroke-width:0.494242;stroke-linecap:round;stroke-linejoin:round;paint-order:markers stroke fill"
       d="m 19.388263,96.830156 c 0.03984,0.524432 0.129291,1.04404 0.267196,1.552041 1.222116,4.501093 5.911724,7.172333 10.474084,5.966123 3.510042,-0.92805 6.042227,-3.9432 6.313923,-7.518164 -3.338106,3.573904 -12.943051,3.783044 -17.055203,0 z"
       sodipodi:nodetypes="ccccc" /><path
       id="path12-3"
       style="font-weight:normal;font-size:47.3081px;line-height:1.5;font-family:Montserrat;-inkscape-font-specification:Montserrat;text-align:center;letter-spacing:-1.26718px;text-anchor:middle;fill:#000000;stroke:none;stroke-width:4;stroke-linecap:round;stroke-linejoin:round;paint-order:markers fill stroke"
       d="m 66.229691,110.94159 0.128923,-0.54205 0.02344,0.12599 q -0.06739,0 -0.114269,-0.044 -0.04395,-0.0439 -0.04395,-0.11427 0,-0.0703 0.04395,-0.11427 0.04688,-0.0439 0.11134,-0.0439 0.06739,0 0.10841,0.0469 0.04395,0.0469 0.04395,0.11134 0,0.0234 -0.0029,0.0469 -0.0029,0.0234 -0.01172,0.0527 -0.0088,0.0293 -0.02344,0.0703 l -0.123057,0.40434 z m -17.897492,-0.40727 q -0.19631,0 -0.37797,-0.0498 -0.178731,-0.0527 -0.284211,-0.12599 l 0.140641,-0.27835 q 0.105479,0.0674 0.25198,0.11134 0.1465,0.044 0.293,0.044 0.17287,0 0.24905,-0.0469 0.07911,-0.0469 0.07911,-0.12599 0,-0.0645 -0.05274,-0.0967 -0.05274,-0.0352 -0.13771,-0.0527 -0.08497,-0.0176 -0.19045,-0.0322 -0.10255,-0.0147 -0.20803,-0.0381 -0.10255,-0.0264 -0.18752,-0.0733 -0.08497,-0.0498 -0.13771,-0.13185 -0.05274,-0.082 -0.05274,-0.21682 0,-0.14943 0.08497,-0.25784 0.08497,-0.11134 0.23733,-0.16994 0.15529,-0.0615 0.36625,-0.0615 0.15822,0 0.31937,0.0352 0.16115,0.0352 0.266631,0.0996 l -0.140641,0.27835 q -0.11134,-0.0674 -0.22561,-0.0908 -0.11134,-0.0264 -0.22268,-0.0264 -0.16701,0 -0.24905,0.0498 -0.07911,0.0498 -0.07911,0.12599 0,0.0703 0.05274,0.10548 0.05274,0.0352 0.13771,0.0557 0.08497,0.0205 0.18752,0.0352 0.10548,0.0117 0.20803,0.0381 0.10255,0.0264 0.18752,0.0733 0.0879,0.044 0.14064,0.12599 0.05274,0.082 0.05274,0.21389 0,0.1465 -0.0879,0.25491 -0.08497,0.10841 -0.24319,0.16994 -0.15822,0.0586 -0.37797,0.0586 z m 1.609197,0 q -0.19924,0 -0.3516,-0.0732 -0.15236,-0.0762 -0.23733,-0.22854 -0.08497,-0.15529 -0.08497,-0.38969 v -0.89365 h 0.36625 v 0.84384 q 0,0.21096 0.09376,0.31644 0.09669,0.10255 0.27249,0.10255 0.128922,0 0.222678,-0.0527 0.09669,-0.0527 0.14943,-0.15822 0.05567,-0.10548 0.05567,-0.26077 v -0.7911 h 0.366249 v 1.56462 h -0.348672 v -0.42192 l 0.06153,0.12892 q -0.07911,0.15236 -0.231467,0.2344 -0.152359,0.0791 -0.334022,0.0791 z m 2.218638,-0.0205 v -0.31644 l -0.02051,-0.0674 v -0.55377 q 0,-0.16115 -0.09669,-0.24905 -0.09669,-0.0908 -0.292999,-0.0908 -0.131853,0 -0.260775,0.041 -0.125987,0.041 -0.213885,0.11427 l -0.14357,-0.26663 q 0.125987,-0.0967 0.298859,-0.14357 0.1758,-0.0498 0.363319,-0.0498 0.339878,0 0.524468,0.16408 0.187525,0.16115 0.187525,0.50103 v 0.91709 z m -0.492243,0.0205 q -0.175795,0 -0.307647,-0.0586 -0.131852,-0.0615 -0.205102,-0.16701 -0.07032,-0.10841 -0.07032,-0.24319 0,-0.13185 0.06153,-0.23733 0.06446,-0.10548 0.208032,-0.16701 0.14357,-0.0615 0.380897,-0.0615 h 0.454153 v 0.24319 h -0.427781 q -0.187519,0 -0.251981,0.0615 -0.06446,0.0586 -0.06446,0.1465 0,0.0996 0.07911,0.15822 0.07912,0.0586 0.219756,0.0586 0.134775,0 0.240256,-0.0615 0.10841,-0.0615 0.155288,-0.18166 l 0.06153,0.21975 q -0.05274,0.13771 -0.190448,0.21389 -0.134782,0.0762 -0.342814,0.0762 z m 2.693926,0 q -0.260769,0 -0.457076,-0.10255 -0.193378,-0.10548 -0.301788,-0.28714 -0.105481,-0.18166 -0.105481,-0.41313 0,-0.2344 0.102545,-0.41313 0.105481,-0.18166 0.287141,-0.28421 0.184589,-0.10255 0.418993,-0.10255 0.228538,0 0.407268,0.0996 0.178731,0.0996 0.281282,0.28128 0.102551,0.18166 0.102551,0.42778 0,0.0234 -0.0029,0.0527 0,0.0293 -0.0029,0.0557 h -1.303851 v -0.24319 h 1.110467 l -0.143571,0.0762 q 0.0029,-0.13478 -0.05567,-0.23733 -0.0586,-0.10255 -0.161154,-0.16115 -0.09962,-0.0586 -0.231467,-0.0586 -0.134782,0 -0.237333,0.0586 -0.09962,0.0586 -0.158218,0.16408 -0.05567,0.10255 -0.05567,0.24319 v 0.0586 q 0,0.14064 0.06446,0.24905 0.06446,0.10841 0.18166,0.16701 0.117204,0.0586 0.269563,0.0586 0.131846,0 0.237327,-0.041 0.10548,-0.041 0.187519,-0.12892 l 0.196313,0.22561 q -0.10548,0.12306 -0.266628,0.19045 -0.158223,0.0645 -0.363326,0.0645 z m 1.008553,-0.0205 v -1.56462 h 0.348667 v 0.41606 l -0.06153,-0.12306 q 0.07911,-0.15236 0.228538,-0.23147 0.152359,-0.0791 0.345737,-0.0791 0.219756,0 0.380903,0.10841 0.164083,0.10841 0.21682,0.32816 l -0.14357,-0.0498 q 0.07618,-0.1758 0.25198,-0.28128 0.175801,-0.10548 0.407269,-0.10548 0.187519,0 0.331089,0.0732 0.1465,0.0733 0.228544,0.22561 0.08204,0.14943 0.08204,0.38676 v 0.89658 h -0.36625 v -0.8497 q 0,-0.20803 -0.09083,-0.31058 -0.09083,-0.10255 -0.260769,-0.10255 -0.120128,0 -0.21389,0.0527 -0.09083,0.0527 -0.143571,0.15529 -0.04981,0.10255 -0.04981,0.26077 v 0.79403 h -0.36625 v -0.8497 q 0,-0.20803 -0.09083,-0.31058 -0.09083,-0.10255 -0.260769,-0.10255 -0.120128,0 -0.21389,0.0527 -0.09083,0.0527 -0.143571,0.15529 -0.04981,0.10255 -0.04981,0.26077 v 0.79403 z m 3.874088,0.0205 q -0.190449,0 -0.348673,-0.0879 -0.155288,-0.0879 -0.249051,-0.2637 -0.09083,-0.17873 -0.09083,-0.45122 0,-0.27542 0.0879,-0.45122 0.09083,-0.1758 0.246121,-0.26077 0.155288,-0.0879 0.354532,-0.0879 0.231467,0 0.407268,0.0996 0.178731,0.0996 0.281282,0.27835 0.10548,0.17873 0.10548,0.42192 0,0.24319 -0.10548,0.42485 -0.102551,0.17874 -0.281282,0.27835 -0.175801,0.0996 -0.407268,0.0996 z m -0.867281,0.54791 v -2.13304 h 0.348666 v 0.36918 l -0.01172,0.41606 0.0293,0.41606 v 0.93174 z m 0.826261,-0.86142 q 0.131846,0 0.234397,-0.0586 0.105481,-0.0586 0.167013,-0.16994 0.06153,-0.11134 0.06153,-0.26077 0,-0.15236 -0.06153,-0.26077 -0.06153,-0.11134 -0.167013,-0.16994 -0.102551,-0.0586 -0.234397,-0.0586 -0.131852,0 -0.237333,0.0586 -0.10548,0.0586 -0.167012,0.16994 -0.06153,0.10841 -0.06153,0.26077 0,0.14943 0.06153,0.26077 0.06153,0.11134 0.167012,0.16994 0.105481,0.0586 0.237333,0.0586 z m 1.105239,0.293 v -1.56462 h 0.348673 v 0.43071 l -0.04102,-0.12599 q 0.07031,-0.15822 0.219749,-0.24026 0.152359,-0.082 0.377968,-0.082 v 0.34867 q -0.02344,-0.006 -0.04395,-0.006 -0.02051,-0.003 -0.04102,-0.003 -0.208032,0 -0.331089,0.12307 -0.123064,0.12013 -0.123064,0.36038 v 0.75887 z m 1.858251,0.0205 q -0.260769,0 -0.457083,-0.10255 -0.193378,-0.10548 -0.301788,-0.28714 -0.10548,-0.18166 -0.10548,-0.41313 0,-0.2344 0.102551,-0.41313 0.10548,-0.18166 0.28714,-0.28421 0.18459,-0.10255 0.418987,-0.10255 0.228544,0 0.407275,0.0996 0.178724,0.0996 0.281275,0.28128 0.102551,0.18166 0.102551,0.42778 0,0.0234 -0.0029,0.0527 0,0.0293 -0.0029,0.0557 h -1.30385 v -0.24319 h 1.110472 l -0.14357,0.0762 q 0.0029,-0.13478 -0.05567,-0.23733 -0.0586,-0.10255 -0.161147,-0.16115 -0.09962,-0.0586 -0.231474,-0.0586 -0.134775,0 -0.237326,0.0586 -0.09962,0.0586 -0.158224,0.16408 -0.05567,0.10255 -0.05567,0.24319 v 0.0586 q 0,0.14064 0.06446,0.24905 0.06446,0.10841 0.18166,0.16701 0.117199,0.0586 0.269558,0.0586 0.131852,0 0.237332,-0.041 0.105481,-0.041 0.187519,-0.12892 l 0.196308,0.22561 q -0.105481,0.12306 -0.266628,0.19045 -0.158218,0.0645 -0.36332,0.0645 z m 1.491995,0 q -0.196308,0 -0.377968,-0.0498 -0.17873,-0.0527 -0.284211,-0.12599 l 0.140641,-0.27835 q 0.105481,0.0674 0.251981,0.11134 0.146499,0.044 0.292999,0.044 0.172872,0 0.249051,-0.0469 0.07911,-0.0469 0.07911,-0.12599 0,-0.0645 -0.05274,-0.0967 -0.05274,-0.0352 -0.137712,-0.0527 -0.08497,-0.0176 -0.190448,-0.0322 -0.102551,-0.0147 -0.208032,-0.0381 -0.102551,-0.0264 -0.187519,-0.0733 -0.08497,-0.0498 -0.137711,-0.13185 -0.05274,-0.082 -0.05274,-0.21682 0,-0.14943 0.08497,-0.25784 0.08497,-0.11134 0.237326,-0.16994 0.155295,-0.0615 0.36625,-0.0615 0.158224,0 0.319371,0.0352 0.161153,0.0352 0.266634,0.0996 l -0.140641,0.27835 q -0.111339,-0.0674 -0.225615,-0.0908 -0.111339,-0.0264 -0.222679,-0.0264 -0.167006,0 -0.249051,0.0498 -0.07911,0.0498 -0.07911,0.12599 0,0.0703 0.05274,0.10548 0.05274,0.0352 0.137705,0.0557 0.08497,0.0205 0.187525,0.0352 0.105481,0.0117 0.208026,0.0381 0.102551,0.0264 0.187525,0.0733 0.0879,0.044 0.140634,0.12599 0.05274,0.082 0.05274,0.21389 0,0.1465 -0.0879,0.25491 -0.08497,0.10841 -0.243192,0.16994 -0.158223,0.0586 -0.377973,0.0586 z m 1.910988,-0.0205 v -0.31644 l -0.02051,-0.0674 v -0.55377 q 0,-0.16115 -0.09669,-0.24905 -0.09669,-0.0908 -0.292999,-0.0908 -0.131853,0 -0.260769,0.041 -0.125994,0.041 -0.213891,0.11427 l -0.14357,-0.26663 q 0.125987,-0.0967 0.298858,-0.14357 0.175801,-0.0498 0.36332,-0.0498 0.339884,0 0.524474,0.16408 0.187519,0.16115 0.187519,0.50103 v 0.91709 z m -0.492237,0.0205 q -0.175801,0 -0.307653,-0.0586 -0.131846,-0.0615 -0.205102,-0.16701 -0.07031,-0.10841 -0.07031,-0.24319 0,-0.13185 0.06153,-0.23733 0.06446,-0.10548 0.208032,-0.16701 0.14357,-0.0615 0.380903,-0.0615 h 0.454147 v 0.24319 H 65.17134 q -0.187519,0 -0.251981,0.0615 -0.06445,0.0586 -0.06445,0.1465 0,0.0996 0.07911,0.15822 0.07911,0.0586 0.21975,0.0586 0.134781,0 0.240256,-0.0615 0.10841,-0.0615 0.155294,-0.18166 l 0.06153,0.21975 q -0.05274,0.13771 -0.190449,0.21389 -0.134781,0.0762 -0.342807,0.0762 z m -31.609059,-0.0205 v -2.051 h 0.884861 q 0.34281,0 0.53033,0.13771 0.19045,0.13771 0.19045,0.38969 0,0.16701 -0.07911,0.28128 -0.07618,0.11427 -0.21096,0.17287 -0.13185,0.0586 -0.29007,0.0586 l 0.04981,-0.0703 q 0.19631,0 0.33695,0.0615 0.14357,0.0586 0.22268,0.17873 0.07911,0.1172 0.07911,0.293 0,0.26078 -0.19338,0.40434 -0.19045,0.14357 -0.57721,0.14357 z m 0.216821,-0.17872 h 0.72371 q 0.26956,0 0.41313,-0.0908 0.14357,-0.0938 0.14357,-0.29593 0,-0.19924 -0.14357,-0.29007 -0.14357,-0.0938 -0.41313,-0.0938 h -0.747151 v -0.17873 h 0.676831 q 0.24612,0 0.3809,-0.0938 0.13771,-0.0938 0.13771,-0.27835 0,-0.18752 -0.13771,-0.27835 -0.13478,-0.0938 -0.3809,-0.0938 h -0.65339 z m 2.496988,0.19337 q -0.22268,0 -0.40141,-0.0996 -0.1758,-0.10255 -0.27835,-0.27835 -0.102551,-0.17873 -0.102551,-0.40727 0,-0.23147 0.102551,-0.40727 0.10255,-0.1758 0.27835,-0.27542 0.1758,-0.0996 0.40141,-0.0996 0.22854,0 0.40434,0.0996 0.178731,0.0996 0.27835,0.27542 0.102551,0.1758 0.102551,0.40727 0,0.22854 -0.102551,0.40727 -0.09962,0.1758 -0.27835,0.27835 -0.17873,0.0996 -0.40434,0.0996 z m 0,-0.18459 q 0.16701,0 0.29593,-0.0733 0.12892,-0.0762 0.20217,-0.21096 0.07618,-0.13771 0.07618,-0.31644 0,-0.18166 -0.07618,-0.31644 -0.07325,-0.13478 -0.20217,-0.20803 -0.12892,-0.0762 -0.293,-0.0762 -0.16408,0 -0.293,0.0762 -0.12892,0.0733 -0.2051,0.20803 -0.07618,0.13478 -0.07618,0.31644 0,0.17873 0.07618,0.31644 0.07618,0.13478 0.2051,0.21096 0.12892,0.0733 0.29007,0.0733 z m 1.131611,0.16994 v -1.53825 h 0.19924 v 0.41606 l -0.03223,-0.0733 q 0.07032,-0.16701 0.225611,-0.26077 0.158219,-0.0967 0.372109,-0.0967 0.225611,0 0.383831,0.11427 0.15822,0.11134 0.2051,0.33695 l -0.08204,-0.0322 q 0.06739,-0.18752 0.23733,-0.30179 0.17287,-0.1172 0.41313,-0.1172 0.18752,0 0.32523,0.0733 0.14064,0.0703 0.21682,0.21682 0.07911,0.1465 0.07911,0.36918 v 0.89365 h -0.208029 v -0.87314 q 0,-0.24319 -0.117201,-0.36625 -0.11427,-0.12599 -0.32523,-0.12599 -0.15822,0 -0.27542,0.0674 -0.11427,0.0645 -0.17873,0.19045 -0.06153,0.12306 -0.06153,0.29886 v 0.80868 h -0.20803 v -0.87314 q 0,-0.24319 -0.1172,-0.36625 -0.117201,-0.12599 -0.328161,-0.12599 -0.15529,0 -0.27249,0.0674 -0.1172,0.0645 -0.18166,0.19045 -0.06153,0.12306 -0.06153,0.29886 v 0.80868 z m 4.513458,0.0146 q -0.19924,0 -0.360389,-0.0908 -0.161151,-0.0938 -0.257841,-0.26663 -0.09376,-0.1758 -0.09376,-0.42778 0,-0.25198 0.09376,-0.42485 0.09376,-0.1758 0.25491,-0.26663 0.16115,-0.0908 0.36332,-0.0908 0.219751,0 0.392621,0.0996 0.1758,0.0967 0.27542,0.27542 0.09962,0.1758 0.09962,0.40727 0,0.2344 -0.09962,0.4102 -0.09962,0.1758 -0.27542,0.27542 -0.17287,0.0996 -0.392621,0.0996 z m -0.79403,0.55377 v -2.10667 h 0.19924 v 0.46294 l -0.02051,0.30765 0.0293,0.31058 v 1.0255 z m 0.77938,-0.73836 q 0.164081,0 0.293001,-0.0733 0.12892,-0.0762 0.2051,-0.21096 0.07618,-0.13771 0.07618,-0.31644 0,-0.17873 -0.07618,-0.31351 -0.07618,-0.13478 -0.2051,-0.21096 -0.12892,-0.0762 -0.293001,-0.0762 -0.16408,0 -0.29593,0.0762 -0.12892,0.0762 -0.2051,0.21096 -0.07325,0.13478 -0.07325,0.31351 0,0.17873 0.07325,0.31644 0.07618,0.13478 0.2051,0.21096 0.13185,0.0733 0.29593,0.0733 z m 2.083857,0.16994 v -0.33988 l -0.0088,-0.0557 v -0.56842 q 0,-0.19631 -0.11134,-0.30179 -0.10841,-0.10548 -0.32523,-0.10548 -0.14943,0 -0.284211,0.0498 -0.134779,0.0498 -0.22854,0.13185 l -0.09376,-0.15529 q 0.117201,-0.0996 0.281281,-0.15236 0.16408,-0.0557 0.34574,-0.0557 0.29886,0 0.46001,0.14943 0.16408,0.1465 0.16408,0.44829 v 0.95518 z m -0.53033,0.0146 q -0.17287,0 -0.30179,-0.0557 -0.125991,-0.0586 -0.193381,-0.15822 -0.06739,-0.10255 -0.06739,-0.2344 0,-0.12013 0.05567,-0.21682 0.0586,-0.0996 0.187521,-0.15822 0.13185,-0.0615 0.3516,-0.0615 h 0.53033 v 0.15529 h -0.52447 q -0.222681,0 -0.31058,0.0791 -0.08497,0.0791 -0.08497,0.19631 0,0.13185 0.10255,0.21096 0.10255,0.0791 0.28714,0.0791 0.1758,0 0.30179,-0.0791 0.12892,-0.082 0.18752,-0.2344 l 0.04688,0.14357 q -0.0586,0.15236 -0.2051,0.24319 -0.14357,0.0908 -0.36332,0.0908 z m 1.216579,-0.0146 v -1.53825 h 0.19924 v 0.41899 l -0.02051,-0.0733 q 0.06446,-0.1758 0.21682,-0.26663 0.15236,-0.0938 0.37797,-0.0938 v 0.20217 q -0.01172,0 -0.02344,0 -0.01172,-0.003 -0.02344,-0.003 -0.24319,0 -0.3809,0.14943 -0.13771,0.1465 -0.13771,0.41899 v 0.78524 z m 1.940286,0 v -0.33988 l -0.0088,-0.0557 v -0.56842 q 0,-0.19631 -0.11134,-0.30179 -0.10841,-0.10548 -0.325231,-0.10548 -0.149429,0 -0.284209,0.0498 -0.13478,0.0498 -0.22854,0.13185 l -0.09376,-0.15529 q 0.117199,-0.0996 0.281279,-0.15236 0.164081,-0.0557 0.345741,-0.0557 0.29886,0 0.46001,0.14943 0.16408,0.1465 0.16408,0.44829 v 0.95518 z m -0.53033,0.0146 q -0.172871,0 -0.301791,-0.0557 -0.125989,-0.0586 -0.19338,-0.15822 -0.06739,-0.10255 -0.06739,-0.2344 0,-0.12013 0.05567,-0.21682 0.0586,-0.0996 0.18752,-0.15822 0.13185,-0.0615 0.3516,-0.0615 h 0.53033 v 0.15529 h -0.524471 q -0.222679,0 -0.310579,0.0791 -0.08497,0.0791 -0.08497,0.19631 0,0.13185 0.10255,0.21096 0.102551,0.0791 0.287141,0.0791 0.1758,0 0.30179,-0.0791 0.12892,-0.082 0.18752,-0.2344 l 0.04688,0.14357 q -0.0586,0.15236 -0.2051,0.24319 -0.14357,0.0908 -0.36332,0.0908 z" /><path
       id="path15-4"
       style="font-weight:normal;font-size:47.3081px;line-height:1.5;font-family:Montserrat;-inkscape-font-specification:Montserrat;text-align:center;letter-spacing:-1.26718px;text-anchor:middle;fill:#000000;stroke:none;stroke-width:4;stroke-linecap:round;stroke-linejoin:round;paint-order:markers fill stroke"
       d="m 60.407052,113.35438 -0.04102,-1.4357 h 0.246115 l -0.04395,1.4357 z m 0.08204,0.62995 q -0.06446,0 -0.111339,-0.0439 -0.04395,-0.0469 -0.04395,-0.10841 0,-0.0645 0.04395,-0.10548 0.04688,-0.0439 0.111339,-0.0439 0.06739,0 0.10841,0.0439 0.04395,0.041 0.04395,0.10548 0,0.0615 -0.04395,0.10841 -0.04102,0.0439 -0.10841,0.0439 z m -6.451445,-0.0147 -0.670971,-1.56462 h 0.3809 l 0.577211,1.38003 h -0.18752 l 0.59772,-1.38003 h 0.351601 l -0.670971,1.56462 z m 1.858249,0.0205 q -0.240261,0 -0.42778,-0.10255 -0.18752,-0.10547 -0.295931,-0.28713 -0.10841,-0.18166 -0.10841,-0.41314 0,-0.2344 0.10841,-0.41313 0.108411,-0.18166 0.295931,-0.28421 0.187519,-0.10255 0.42778,-0.10255 0.243192,0 0.430711,0.10255 0.190449,0.10255 0.295929,0.28128 0.10841,0.17873 0.10841,0.41606 0,0.23148 -0.10841,0.41314 -0.10548,0.18166 -0.295929,0.28713 -0.187519,0.10255 -0.430711,0.10255 z m 0,-0.31351 q 0.134782,0 0.240263,-0.0586 0.105474,-0.0586 0.164077,-0.16994 0.06153,-0.11134 0.06153,-0.26077 0,-0.15236 -0.06153,-0.26077 -0.0586,-0.11134 -0.164077,-0.16994 -0.105481,-0.0586 -0.237333,-0.0586 -0.134781,0 -0.240261,0.0586 -0.102549,0.0586 -0.164079,0.16994 -0.06153,0.10841 -0.06153,0.26077 0,0.14943 0.06153,0.26077 0.06153,0.11134 0.164079,0.16994 0.10548,0.0586 0.237331,0.0586 z m 1.82602,0.31351 q -0.246121,0 -0.439499,-0.10255 -0.190455,-0.10547 -0.298865,-0.28713 -0.10841,-0.18166 -0.10841,-0.41314 0,-0.2344 0.10841,-0.41313 0.10841,-0.18166 0.298865,-0.28421 0.193378,-0.10255 0.439499,-0.10255 0.228538,0 0.40141,0.0938 0.175801,0.0908 0.266628,0.26956 l -0.281276,0.16408 q -0.07032,-0.11134 -0.172871,-0.16408 -0.09962,-0.0527 -0.21682,-0.0527 -0.134782,0 -0.243192,0.0586 -0.10841,0.0586 -0.169942,0.16994 -0.06153,0.10841 -0.06153,0.26077 0,0.15236 0.06153,0.2637 0.06153,0.10841 0.169942,0.16701 0.10841,0.0586 0.243192,0.0586 0.117198,0 0.21682,-0.0527 0.102551,-0.0527 0.172871,-0.16408 l 0.281276,0.16408 q -0.09083,0.1758 -0.266628,0.27249 -0.172872,0.0938 -0.40141,0.0938 z m 1.617989,0 q -0.260769,0 -0.457083,-0.10255 -0.193378,-0.10547 -0.301788,-0.28713 -0.105481,-0.18166 -0.105481,-0.41314 0,-0.2344 0.102551,-0.41313 0.105481,-0.18166 0.287141,-0.28421 0.184589,-0.10255 0.418987,-0.10255 0.228544,0 0.407274,0.0996 0.178731,0.0996 0.281276,0.28128 0.102551,0.18166 0.102551,0.42778 0,0.0234 -0.0029,0.0527 0,0.0293 -0.0029,0.0557 h -1.30385 v -0.24319 h 1.110472 l -0.14357,0.0762 q 0.0029,-0.13478 -0.05567,-0.23733 -0.0586,-0.10255 -0.161147,-0.16115 -0.09962,-0.0586 -0.231474,-0.0586 -0.134776,0 -0.237327,0.0586 -0.09962,0.0586 -0.158224,0.16408 -0.05567,0.10255 -0.05567,0.24319 v 0.0586 q 0,0.14064 0.06446,0.24905 0.06445,0.10841 0.18166,0.16701 0.117198,0.0586 0.269557,0.0586 0.131852,0 0.237333,-0.041 0.105481,-0.041 0.187519,-0.12892 l 0.196307,0.22561 q -0.10548,0.12306 -0.266627,0.19046 -0.158218,0.0644 -0.36332,0.0644 z m -0.624089,-1.79902 0.392621,-0.40141 h 0.334019 l 0.392621,0.40141 H 59.533281 L 59.1348,111.85422 h 0.281282 l -0.39848,0.33695 z m -18.563237,1.79316 q -0.20217,0 -0.36332,-0.0908 -0.16115,-0.0938 -0.25491,-0.26956 -0.09376,-0.1758 -0.09376,-0.42485 0,-0.25198 0.09376,-0.42485 0.09669,-0.1758 0.25784,-0.26663 0.16115,-0.0908 0.36039,-0.0908 0.21975,0 0.392621,0.0996 0.175799,0.0967 0.27542,0.27249 0.09962,0.1758 0.09962,0.4102 0,0.23147 -0.09962,0.4102 -0.09962,0.1758 -0.27542,0.27542 -0.172871,0.0996 -0.392621,0.0996 z m -0.794031,-0.0147 v -2.17406 h 0.208031 v 1.08996 l -0.0293,0.31058 0.02051,0.31058 v 0.46294 z m 0.779381,-0.16994 q 0.16408,0 0.293,-0.0733 0.128921,-0.0762 0.205101,-0.21096 0.07618,-0.13771 0.07618,-0.31644 0,-0.18166 -0.07618,-0.31644 -0.07618,-0.13478 -0.205101,-0.20803 -0.12892,-0.0762 -0.293,-0.0762 -0.16408,0 -0.29593,0.0762 -0.12892,0.0733 -0.2051,0.20803 -0.07325,0.13478 -0.07325,0.31644 0,0.17873 0.07325,0.31644 0.07618,0.13478 0.2051,0.21096 0.13185,0.0733 0.29593,0.0733 z m 1.755698,0.18459 q -0.222681,0 -0.40141,-0.0996 -0.175801,-0.10254 -0.278351,-0.27835 -0.10255,-0.17873 -0.10255,-0.40727 0,-0.23147 0.10255,-0.40727 0.10255,-0.1758 0.278351,-0.27542 0.175799,-0.0996 0.40141,-0.0996 0.22854,0 0.40434,0.0996 0.17873,0.0996 0.27835,0.27542 0.10255,0.1758 0.10255,0.40727 0,0.22854 -0.10255,0.40727 -0.09962,0.17581 -0.27835,0.27835 -0.17873,0.0996 -0.40434,0.0996 z m 0,-0.18459 q 0.16701,0 0.295929,-0.0733 0.128921,-0.0762 0.202171,-0.21096 0.07618,-0.13771 0.07618,-0.31644 0,-0.18166 -0.07618,-0.31644 -0.07325,-0.13478 -0.202171,-0.20803 -0.128919,-0.0762 -0.293,-0.0762 -0.16408,0 -0.293,0.0762 -0.12892,0.0733 -0.2051,0.20803 -0.07618,0.13478 -0.07618,0.31644 0,0.17873 0.07618,0.31644 0.07618,0.13478 0.2051,0.21096 0.12892,0.0733 0.290071,0.0733 z m 1.13161,0.16994 v -1.53825 h 0.199241 v 0.41606 l -0.03223,-0.0732 q 0.07032,-0.16701 0.22561,-0.26077 0.158221,-0.0967 0.372111,-0.0967 0.22561,0 0.38383,0.11427 0.15822,0.11134 0.2051,0.33695 l -0.08204,-0.0322 q 0.06739,-0.18752 0.23733,-0.30179 0.17287,-0.1172 0.41313,-0.1172 0.187521,0 0.325231,0.0733 0.14064,0.0703 0.21682,0.21682 0.07911,0.1465 0.07911,0.36918 v 0.89365 h -0.20803 v -0.87314 q 0,-0.24319 -0.1172,-0.36625 -0.11427,-0.12599 -0.325231,-0.12599 -0.15822,0 -0.27542,0.0674 -0.11427,0.0645 -0.17873,0.19045 -0.06153,0.12306 -0.06153,0.29886 v 0.80868 h -0.20803 v -0.87314 q 0,-0.24319 -0.1172,-0.36625 -0.1172,-0.12599 -0.32816,-0.12599 -0.15529,0 -0.27249,0.0674 -0.117201,0.0645 -0.181661,0.19045 -0.06153,0.12306 -0.06153,0.29886 v 0.80868 z m 4.513459,0.0147 q -0.19924,0 -0.360391,-0.0908 -0.161149,-0.0938 -0.25784,-0.26663 -0.09376,-0.1758 -0.09376,-0.42778 0,-0.25198 0.09376,-0.42485 0.09376,-0.1758 0.254911,-0.26663 0.16115,-0.0908 0.36332,-0.0908 0.21975,0 0.39262,0.0996 0.1758,0.0967 0.27542,0.27542 0.09962,0.1758 0.09962,0.40727 0,0.2344 -0.09962,0.4102 -0.09962,0.1758 -0.27542,0.27542 -0.17287,0.0996 -0.39262,0.0996 z m -0.794031,0.55377 v -2.10667 h 0.199241 v 0.46294 l -0.02051,0.30766 0.0293,0.31057 v 1.0255 z m 0.779381,-0.73836 q 0.16408,0 0.293,-0.0733 0.12892,-0.0762 0.2051,-0.21096 0.07618,-0.13771 0.07618,-0.31644 0,-0.17873 -0.07618,-0.31351 -0.07618,-0.13478 -0.2051,-0.21096 -0.12892,-0.0762 -0.293,-0.0762 -0.16408,0 -0.29593,0.0762 -0.12892,0.0762 -0.205101,0.21096 -0.07325,0.13478 -0.07325,0.31351 0,0.17873 0.07325,0.31644 0.07618,0.13478 0.205101,0.21096 0.13185,0.0733 0.29593,0.0733 z m 2.083857,0.16994 v -0.33988 l -0.0088,-0.0557 v -0.56842 q 0,-0.19631 -0.111339,-0.30179 -0.10841,-0.10548 -0.325231,-0.10548 -0.14943,0 -0.28421,0.0498 -0.13478,0.0498 -0.22854,0.13185 l -0.09376,-0.15529 q 0.1172,-0.0996 0.28128,-0.15236 0.16408,-0.0557 0.34574,-0.0557 0.29886,0 0.460011,0.14943 0.16408,0.1465 0.16408,0.44829 v 0.95518 z m -0.530331,0.0147 q -0.17287,0 -0.30179,-0.0557 -0.12599,-0.0586 -0.19338,-0.15822 -0.06739,-0.10255 -0.06739,-0.2344 0,-0.12013 0.05567,-0.21682 0.0586,-0.0996 0.18752,-0.15822 0.13185,-0.0615 0.3516,-0.0615 h 0.530331 v 0.15529 H 49.11566 q -0.22268,0 -0.31058,0.0791 -0.08497,0.0791 -0.08497,0.19631 0,0.13185 0.10255,0.21096 0.10255,0.0791 0.28714,0.0791 0.1758,0 0.301791,-0.0791 0.128919,-0.082 0.187519,-0.2344 l 0.04688,0.14357 q -0.0586,0.15236 -0.205099,0.24319 -0.143571,0.0908 -0.363321,0.0908 z m 1.216579,-0.0147 v -1.53825 h 0.19924 v 0.41899 l -0.02051,-0.0733 q 0.06446,-0.1758 0.216819,-0.26663 0.152361,-0.0938 0.377971,-0.0938 v 0.20217 q -0.01172,0 -0.02344,0 -0.01172,-0.003 -0.02344,-0.003 -0.24319,0 -0.3809,0.14943 -0.13771,0.1465 -0.13771,0.41899 v 0.78524 z m 1.940286,0 v -0.33988 l -0.0088,-0.0557 v -0.56842 q 0,-0.19631 -0.11134,-0.30179 -0.10841,-0.10548 -0.32523,-0.10548 -0.14943,0 -0.28421,0.0498 -0.13478,0.0498 -0.228541,0.13185 l -0.09376,-0.15529 q 0.117201,-0.0996 0.281281,-0.15236 0.16408,-0.0557 0.34574,-0.0557 0.298861,0 0.46001,0.14943 0.16408,0.1465 0.16408,0.44829 v 0.95518 z m -0.53033,0.0147 q -0.17287,0 -0.30179,-0.0557 -0.125991,-0.0586 -0.19338,-0.15822 -0.06739,-0.10255 -0.06739,-0.2344 0,-0.12013 0.05567,-0.21682 0.0586,-0.0996 0.18752,-0.15822 0.13185,-0.0615 0.3516,-0.0615 h 0.53033 v 0.15529 h -0.52447 q -0.22268,0 -0.31058,0.0791 -0.08497,0.0791 -0.08497,0.19631 0,0.13185 0.10255,0.21096 0.10255,0.0791 0.28714,0.0791 0.1758,0 0.30179,-0.0791 0.12892,-0.082 0.18752,-0.2344 l 0.04688,0.14357 q -0.0586,0.15236 -0.2051,0.24319 -0.14357,0.0908 -0.36332,0.0908 z" /></g></svg>
