<?xml version="1.0" encoding="UTF-8" standalone="no"?>
<svg
   version="1.0"
   width="100pt"
   height="100pt"
   viewBox="0 0 100 100"
   preserveAspectRatio="xMidYMid"
   id="svg1"
   sodipodi:docname="icon.svg"
   inkscape:version="1.4.3 (0d15f75, 2025-12-25)"
   xmlns:inkscape="http://www.inkscape.org/namespaces/inkscape"
   xmlns:sodipodi="http://sodipodi.sourceforge.net/DTD/sodipodi-0.dtd"
   xmlns="http://www.w3.org/2000/svg"
   xmlns:svg="http://www.w3.org/2000/svg">
  <defs
     id="defs1" />
  <sodipodi:namedview
     id="namedview1"
     pagecolor="#ffffff"
     bordercolor="#000000"
     borderopacity="0.25"
     inkscape:showpageshadow="2"
     inkscape:pageopacity="0.0"
     inkscape:pagecheckerboard="0"
     inkscape:deskcolor="#d1d1d1"
     inkscape:document-units="pt"
     inkscape:zoom="2.1807539"
     inkscape:cx="34.850333"
     inkscape:cy="62.134474"
     inkscape:window-width="1920"
     inkscape:window-height="991"
     inkscape:window-x="-9"
     inkscape:window-y="-9"
     inkscape:window-maximized="1"
     inkscape:current-layer="svg1"
     showguides="true" />
  <g
     id="g1"
     transform="matrix(0.90646538,0,0,0.90646538,221.26906,36.390731)"
     style="stroke-width:1.10319">
    <circle
       style="fill:#d71f3b;fill-opacity:1;stroke:none;stroke-width:0.545237;stroke-linecap:round;stroke-linejoin:round;paint-order:markers stroke fill"
       id="circle3-4"
       cx="-144.13089"
       cy="-122.88342"
       r="55.120182"
       transform="matrix(0.70760866,-0.70660454,0.70760866,0.70660454,0,0)" />
    <path
       id="circle16-18"
       style="fill:#ffffff;stroke:none;stroke-width:1.10318;stroke-linecap:round;stroke-linejoin:round;stroke-dasharray:none;paint-order:markers stroke fill"
       d="M -162.03506,-20.861803 V 8.4601059 c -4.90727,-5.5666086 -11.69338,-8.89335971 -19.19047,-8.89335971 -14.97101,0 -27.10777,12.72418681 -27.10777,31.14250781 -2e-5,18.553742 12.13674,31.142527 27.10777,31.142527 7.49709,0 14.2832,-3.190863 19.19047,-8.689864 v 7.593163 h 3.91859 a 55.158883,55.158883 0 0 0 13.12259,-12.408569 v -66.666444 a 55.158883,55.158883 0 0 0 -2.04935,-2.54187 z m -14.46241,34.529879 c 8.15247,0 14.76133,7.195615 14.76135,16.891716 0,9.989869 -6.60888,16.891715 -14.76135,16.891715 -8.15247,0 -14.76133,-6.828402 -14.76133,-16.891715 0,-9.98987 6.60886,-16.891716 14.76133,-16.891716 z" />
  </g>
</svg>
